<svg viewBox="0 0 3080 682" role="img" aria-label="Home"><path d="M1815.47 179.36c60.04 0 106.46 13.48 139.23 40.44 32.77 26.98 49.48 66.5 50.09 118.6h-83.63c-.62-61.9-36.46-92.85-107.53-92.85-29.41 0-52.7 5.97-69.84 17.92-17.16 11.94-25.73 28.04-25.73 48.26 0 13.5 3.2 24.52 9.65 33.09 6.44 8.59 14.85 15.63 25.27 21.14 10.4 5.54 22.67 9.97 36.76 13.33 14.1 3.4 29.09 6.6 45.01 9.66 20.85 4.3 42.3 9.06 64.36 14.25 22.05 5.21 41.8 13.02 59.26 23.44 17.49 10.42 31.86 24.52 43.2 42.3 11.34 17.78 17 41.36 17 70.78 0 21.46-4.9 40.9-14.72 58.36-9.8 17.48-23.27 32.34-40.42 44.6-17.14 12.27-37.54 21.76-61.12 28.5-23.58 6.75-49.17 10.1-76.73 10.1-66.16 0-117.04-14.38-152.55-43.2-34.35-27.83-52.32-67.13-54.05-117.82h85.53c1.09 30.99 11.65 54.53 31.94 70.48 21.43 16.86 51.77 25.27 90.96 25.27 32.48 0 57.45-5.97 74.92-17.93 17.45-11.95 26.18-29.56 26.18-52.86 0-14.7-3.38-26.49-10.1-35.39-6.75-8.86-15.79-16.22-27.13-22.05-11.34-5.82-24.34-10.43-39.06-13.8-14.7-3.36-30.02-6.58-45.95-9.65a1127.12 1127.12 0 01-62.48-12.88c-20.84-4.88-39.68-12.4-56.53-22.5-16.84-10.13-30.64-24.07-41.34-41.83-10.74-17.78-16.1-41.05-16.1-69.86 0-20.24 4.45-38.78 13.33-55.63 8.88-16.85 21.45-31.4 37.69-43.66 16.22-12.26 35.68-21.77 58.35-28.5 22.68-6.75 48.1-10.11 76.28-10.11zm-445.72 0c74.12 0 128.5 24.22 163.13 72.6 34.61 48.43 51.94 116.77 51.94 205.02h-353.85c1.21 23.3 5.5 44.58 12.87 63.88 7.35 19.32 17.3 35.86 29.86 49.66a137.16 137.16 0 0043.2 32.16c16.22 7.67 34.14 11.5 53.76 11.5 30.64 0 56.82-7.05 78.58-21.14 21.73-14.1 40.9-39.39 46.09-72.78h89.46c-10.53 58.46-36.31 95.91-75.82 121.95-39.53 26.04-86.55 39.08-141.07 39.08-72.92 0-128.65-22.22-167.24-66.66-38.61-44.43-57.92-105.85-57.92-184.32 0-35.52 5.2-68.63 15.62-99.27 10.42-30.65 25.57-57.3 45.5-79.99a207.93 207.93 0 0171.68-52.86c27.87-12.55 59.28-18.83 94.2-18.83h.01zm-668.56 0c35.54 0 67.55 6.13 96.05 18.38 28.48 12.26 52.68 29.57 72.6 51.94 19.9 22.37 35.23 48.88 45.94 79.52 10.72 30.65 16.1 64.34 16.1 101.11 0 36.78-5.38 70.64-16.1 101.6-10.73 30.94-26.03 57.44-45.95 79.52-19.9 22.05-44.27 39.21-73.06 51.47-28.8 12.24-60.97 18.39-96.48 18.39-34.92 0-66.49-6.15-94.67-18.4-28.19-12.25-52.24-29.42-72.15-51.46-19.9-22.08-35.07-48.58-45.48-79.52-10.42-30.94-15.63-64.82-15.63-101.6 0-36.77 5.36-70.46 16.1-101.1 10.7-30.65 25.86-57.16 45.48-79.53 19.6-22.37 43.65-39.68 72.14-51.94 28.49-12.25 60.2-18.38 95.1-18.38zm1837.45 0c44.72 0 79.64 6.75 104.75 20.22 25.14 13.49 43.8 30.64 56.07 51.47 12.24 20.85 19.76 43.98 22.51 69.41a683.96 683.96 0 014.16 74.01v129.61c0 27.58.74 53.03 2.28 76.3a423.75 423.75 0 009.65 67.12h-79.02a417.16 417.16 0 01-3.69-25.27c-1.23-10.13-2.15-23.15-2.77-39.08-20.2 26.98-43.5 46.12-69.82 57.45-26.36 11.34-56.69 17.02-91 17.02-52.7 0-93.27-13.34-121.77-40-28.48-26.66-42.73-61.13-42.73-103.43 0-25.73 5.06-47.33 15.17-64.8a129.94 129.94 0 0140.44-43.22c16.83-11.32 36.3-20.22 58.35-26.66a498.93 498.93 0 0168-14.7c23.28-3.36 46.58-5.97 69.85-7.8 23.28-1.84 44.72-3.99 64.33-6.45v-16.55c0-35.52-8.27-62.96-24.8-82.27-16.56-19.3-43.2-28.95-79.96-28.95-33.08 0-59.73 8.12-79.95 24.35-20.22 16.25-30.33 40.3-30.33 72.17h-83.63c0-24.51 4.73-46.57 14.23-66.18a144 144 0 0140-50.1c17.14-13.8 37.52-24.52 61.11-32.18 23.57-7.67 49.76-11.5 78.57-11.5zM2197.5 78.25v114.89h102.95V263H2197.5v236.27c0 16.54.47 31.4 1.39 44.58.91 13.18 3.22 24.2 6.89 33.09 3.67 8.9 9.35 15.63 17 20.24 7.65 4.59 18.21 6.89 31.7 6.89 6.73 0 13.94-.14 21.6-.47 7.66-.3 16.38-1.68 26.18-4.14v68.04c-25.1 5.51-48.39 8.26-69.84 8.26-18.38 0-35.07-2.28-50.09-6.89-15-4.59-27.56-12.08-37.67-22.5-10.11-10.45-17.92-24.52-23.42-42.3-5.54-17.76-8.28-39.53-8.28-65.27V263h-87.31v-69.86h87.31V78.24h84.54zm828.2 109.38c17.76 0 35.52 1.84 53.3 5.5v74.46a786.9 786.9 0 00-29.41-4.6 203.82 203.82 0 00-26.64-1.83c-25.73 0-46.73 4.45-62.96 13.33a96.22 96.22 0 00-38.14 37.7c-9.17 16.23-15.61 36-19.3 59.3-3.67 23.3-5.5 49.34-5.5 78.13v217.87h-84.56V193.14h79.95V263c18.38-28.8 38.6-48.55 60.65-59.28 22.07-10.72 46.26-16.1 72.6-16.1v.01zM1079.36.1v667.39h-84.54V.09h84.54zM202.18.1c28.17 0 57.59 1.23 88.23 3.67 30.63 2.45 60.65 11.02 90.07 25.74 29.4 15.93 51.59 39.06 66.63 69.41 15 30.33 22.51 64.5 22.51 102.5 0 40.44-8.14 74.9-24.36 103.4-16.24 28.5-38.14 51.05-65.7 67.58-19 11.05-43.8 19.17-74.45 24.36-30.64 5.21-66.8 7.83-108.43 7.83H90.06v262.9H0V.09h202.18zm2441.2 435.74c-17.77 2.45-39.81 4.45-66.16 5.97a413.24 413.24 0 00-76.29 11.5c-24.5 6.12-45.34 15.47-62.48 28.04-17.16 12.55-25.73 30.79-25.73 54.7 0 23.28 8.73 42.41 26.18 57.44 17.49 15.03 41.5 22.52 72.14 22.52 17.14 0 33.7-2.12 49.64-6.44a99.14 99.14 0 0042.26-23.44c12.26-11.32 22.06-26.95 29.42-46.88 7.36-19.91 11.03-45.5 11.03-76.75v-26.66zM701.19 247.38c-21.46 0-40.89 4.3-58.34 12.86-17.49 8.6-32.34 20.85-44.58 36.78-12.26 15.93-21.76 35.1-28.5 57.46-6.75 22.37-10.1 47.35-10.1 74.93 0 27.57 3.21 52.7 9.65 75.37 6.42 22.68 15.76 42.14 28.03 58.38 12.24 16.24 27.1 28.8 44.57 37.69 17.47 8.88 36.9 13.33 58.34 13.33 22.08 0 42.12-4.45 60.22-13.33a127.87 127.87 0 0045.48-37.23c12.24-15.92 21.74-35.07 28.48-57.48 6.75-22.33 10.11-47.33 10.11-74.91s-3.38-52.53-10.11-74.91c-6.75-22.37-16.38-41.68-28.93-57.92-12.57-16.24-27.58-28.8-45.03-37.69-17.47-8.88-37.23-13.33-59.3-13.33h.02zm664.89 0c-36.15 0-65.88 11.5-89.17 34.47-23.28 22.98-37.98 58.38-44.1 106.18h261.92c-4.91-47.8-19-83.2-42.28-106.18-23.28-22.97-52.08-34.47-86.39-34.47h.02zM205.85 73.61H90.06v257.45h115.81c23.27 0 44.41-1.08 63.4-3.22 19-2.15 33.68-5.67 44.12-10.57 20.82-10.42 36.6-26.05 47.31-46.9 10.74-20.82 16.1-43.8 16.1-68.94 0-25.12-5.36-47.96-16.1-68.49-10.73-20.52-26.49-36.01-47.31-46.42-10.44-5.52-25.12-9.03-44.12-10.56-18.99-1.54-40.13-2.32-63.4-2.32l-.02-.03z"></path></svg>